<svg width="185" height="52" viewBox="0 0 185 52" fill="none" xmlns="http://www.w3.org/2000/svg">
<path d="M130.965 45H129.46V33.4293H130.965V45ZM139.394 38.7353V33.4293H140.816V45H139.394V43.6611C138.915 44.6033 137.824 45.1984 136.684 45.1984C134.254 45.1984 132.915 43.4462 132.915 41.1982C132.915 38.9502 134.353 37.1815 136.717 37.1815C137.923 37.1815 138.915 37.7931 139.394 38.7353ZM136.882 43.909C138.551 43.909 139.461 42.6693 139.461 41.1982C139.461 39.727 138.551 38.4708 136.882 38.4708C135.312 38.4708 134.336 39.6279 134.336 41.1982C134.336 42.752 135.312 43.909 136.882 43.909ZM150.037 40.7684C150.037 41.0494 150.037 41.2643 150.003 41.6114H144.102C144.135 43.0826 145.045 43.9421 146.499 43.9421C147.507 43.9421 148.202 43.5454 148.516 42.8181H149.954C149.689 44.2231 148.284 45.1984 146.499 45.1984C144.152 45.1984 142.681 43.6446 142.681 41.1817C142.681 38.7683 144.169 37.1815 146.433 37.1815C148.582 37.1815 150.037 38.6691 150.037 40.7684ZM144.102 40.5039H148.632C148.632 39.165 147.805 38.3386 146.417 38.3386C145.028 38.3386 144.169 39.2146 144.102 40.5039ZM153.35 45H151.912V37.3798H153.35V38.7849C153.764 37.8096 154.689 37.1815 156.012 37.1815C157.88 37.1815 158.838 38.2724 158.838 40.3056V45H157.417V40.9337C157.417 39.2312 156.855 38.4212 155.499 38.4212C154.078 38.4212 153.35 39.4295 153.35 40.9668V45ZM164.223 43.8099C164.504 43.8099 164.967 43.7603 165.182 43.7107V44.9835C164.901 45.0496 164.388 45.0992 163.892 45.0992C163 45.0992 161.562 44.9339 161.562 42.471V38.5865H160.19V37.3798H161.562V34.9665H163V37.3798H164.917V38.5865H163V42.1569C163 43.6115 163.496 43.8099 164.223 43.8099ZM167.635 36.074C166.941 36.074 166.462 35.5616 166.462 34.9169C166.462 34.2723 166.941 33.7433 167.635 33.7433C168.313 33.7433 168.793 34.2723 168.793 34.9169C168.793 35.5616 168.313 36.074 167.635 36.074ZM168.346 45H166.925V37.3798H168.346V45ZM174.021 43.8099C174.302 43.8099 174.765 43.7603 174.98 43.7107V44.9835C174.699 45.0496 174.187 45.0992 173.691 45.0992C172.798 45.0992 171.36 44.9339 171.36 42.471V38.5865H169.988V37.3798H171.36V34.9665H172.798V37.3798H174.716V38.5865H172.798V42.1569C172.798 43.6115 173.294 43.8099 174.021 43.8099ZM182.178 41.2974V37.3798H183.599V45.1488C183.599 46.3554 183.236 47.2811 182.574 47.8927C181.963 48.4216 181.12 48.7192 180.078 48.7192C178.988 48.7192 178.095 48.4382 177.5 47.9257C176.954 47.4629 176.657 46.8017 176.64 45.9587H178.078C178.145 46.8844 178.64 47.5125 180.062 47.5125C181.351 47.5125 182.178 46.7852 182.178 45.0496V43.628C181.731 44.5537 180.822 45.1818 179.533 45.1818C177.549 45.1818 176.64 43.8595 176.64 41.9255V37.3798H178.062V41.628C178.062 42.9834 178.508 43.909 180.012 43.909C181.484 43.909 182.178 42.6693 182.178 41.2974Z" fill="black"/>
<g clip-path="url(#clip0_1263_8993)">
<path d="M-0.000549316 44.8681C4.6089 29.9119 9.21836 14.9557 13.8227 -0.000488281H25.8837C30.5084 14.9557 35.1332 29.9119 39.7579 44.8681H26.0467L19.9347 8.80441C17.7853 20.8644 15.6308 32.9244 13.4815 44.9844C8.98916 44.9439 4.49176 44.9085 -0.000549316 44.8681Z" fill="black"/>
<path d="M63.8997 20.5005C64.6026 19.5401 67.1187 15.8706 66.4464 11.1042C65.718 5.89303 61.4702 1.48047 55.7096 -0.000488281H41.5095V44.7063H58.4397C64.19 43.468 68.555 38.8886 69.3597 33.3237C70.0626 28.4663 67.954 23.5433 63.8997 20.5005ZM50.0204 8.57696H54.1358C56.6315 8.94088 58.3836 11.089 58.2461 13.3383C58.1341 15.2135 56.7232 16.8865 54.7419 17.4172H50.0204V8.57696ZM57.2325 36.1188H50.107V26.9399H56.6162C59.0407 27.3392 60.7775 29.4166 60.7316 31.7012C60.6858 33.7028 59.275 35.5173 57.2325 36.1188Z" fill="black"/>
<path d="M94.8364 20.5005C95.5393 19.5401 98.0554 15.8706 97.3831 11.1042C96.6547 5.89303 92.4069 1.48047 86.6463 -0.000488281H72.4462V44.7063H89.3764C95.1267 43.468 99.4917 38.8886 100.296 33.3237C100.999 28.4663 98.8907 23.5433 94.8364 20.5005ZM80.9571 8.57696H85.0725C87.5682 8.94088 89.3203 11.089 89.1828 13.3383C89.0708 15.2135 87.6599 16.8865 85.6786 17.4172H80.9571V8.57696ZM88.1692 36.1188H81.0437V26.9399H87.5529C89.9774 27.3392 91.7142 29.4166 91.6683 31.7012C91.6225 33.7028 90.2117 35.5173 88.1692 36.1188Z" fill="black"/>
<path d="M95.9992 0H108.865C110.709 7.75357 112.552 15.5021 114.391 23.2556C116.24 15.5021 118.079 7.75357 119.923 0H132.585C128.164 10.0129 123.737 20.0258 119.316 30.0388V45H109.267V30.337C104.846 20.223 100.425 10.114 95.9992 0Z" fill="black"/>
</g>
<defs>
<clipPath id="clip0_1263_8993">
<rect width="132.589" height="45" fill="white"/>
</clipPath>
</defs>
</svg>
