<svg width="377" height="377" viewBox="0 0 377 377" fill="none" xmlns="http://www.w3.org/2000/svg">
<g clip-path="url(#clip0_1200_10574)">
<path d="M0 142.818H13.639V155.948H90.7654V143.344H78.1719V130.215H52.4649V143.344C48.7767 142.876 43.6174 143.98 40.1341 143.344C39.698 143.265 38.8206 142.923 38.8206 142.555V130.215H13.1188V103.962H39.3513V129.689H51.9447V117.086H78.1772V103.956H91.296V117.606H78.1772V129.684H90.508C90.5658 129.684 91.296 130.415 91.296 130.473V142.813H103.889V117.086H117.008V104.482H103.889V65.0995H130.122V78.2288H143.241V91.3581H130.122V103.962H143.241V182.196H117.008V169.066H104.415V182.196H91.296V195.325H78.1772C78.1667 199.516 78.1877 203.732 78.1772 207.928C65.0688 207.881 51.9342 207.965 38.8259 207.928V195.588C38.8259 195.53 39.5562 194.799 39.614 194.799H78.1772V182.196H39.614C39.5562 182.196 38.8259 181.465 38.8259 181.407V169.066H26.7578V182.196H0V142.813V142.818ZM129.591 78.2341H117.523V90.8376H129.591V78.2341ZM129.591 143.344H117.523V155.948H129.591V143.344ZM103.879 156.473H91.2855V169.077H103.879V156.473ZM90.7654 169.072H78.1719V181.675H90.7654V169.072Z" fill="black"/>
<path d="M78.1719 207.928C82.5379 207.944 86.9248 207.918 91.2908 207.928V220.532H104.41V233.661H129.591V221.058H116.998V207.928H103.879V194.799H130.111V220.527H142.705V194.799H156.344V220.527H168.937V181.67H181.531V169.066H195.17V182.196H182.051V194.799H195.17V207.928H233.47V195.325H221.14C221.082 195.325 220.351 194.594 220.351 194.536V182.196H207.758V156.468H194.639V142.818H207.758V129.689H220.351V117.611H207.758V104.482H195.165V130.21H181.526V117.606H168.932V130.21H155.813V117.08H168.932V104.477H155.813V65.6201H142.694V51.9703H155.551C155.608 51.9703 156.339 52.7011 156.339 52.759V65.0995H168.932V13.1293H182.051V38.8568H207.758V26.7791H194.639V0H220.872V13.6498H207.753V26.2533H233.46V13.124H246.579V0H272.811V39.3826H246.579V26.7791H233.985V51.9808H246.316C246.374 51.9808 247.104 52.7116 247.104 52.7695V90.8375H259.172V78.2341H272.811V142.818H298.518V130.215H285.399V103.962H311.632V142.818H337.339V130.215H324.22V103.962H337.076C337.134 103.962 337.864 104.692 337.864 104.75V129.689H349.932V117.086H376.69V143.339H363.051V130.21H350.458V143.339H337.864V181.67H350.458V195.32H337.864V207.923H311.632V221.052H298.513V234.182H272.28V221.052H259.162V207.923H247.093V233.651H259.687V246.78H298.513V259.383H324.22V247.306H311.889C311.521 247.306 311.18 246.428 311.101 245.991C310.465 242.505 311.569 237.347 311.101 233.651H324.22V220.521C327.908 220.989 333.067 219.885 336.551 220.521C336.987 220.6 337.864 220.942 337.864 221.31V233.651H350.458V246.78H363.051V221.052H349.932V207.923H376.69V246.517C376.69 246.575 375.96 247.306 375.902 247.306H363.571V272.507H375.902C376.475 272.507 376.653 273.79 376.716 274.316C377.599 281.83 376.007 291.058 376.69 298.761H363.571V337.617H376.69V350.747H337.864L337.339 377H298.513V363.35H324.22V350.747H298.513V325.019H285.919V350.747H272.801V363.35H285.919C285.62 367.814 286.56 372.688 285.394 377H259.687L259.162 338.143H247.093V363.082C247.093 363.14 246.363 363.871 246.305 363.871H233.449V350.741H220.33V298.761H233.969V337.617H246.563V298.761H259.156V273.033H246.563V259.904H233.444V246.775H246.563V234.171H233.444V221.042H220.851V272.497H233.969V286.147H207.737V311.874H195.143V337.602H207.737V350.731H195.143V363.334H220.851V376.984H194.618V363.855H181.499V350.726H168.906V376.979H116.966V363.85H103.847V337.596H116.966V298.74H129.56V286.136H103.853V273.007H51.9132V260.141C51.9132 260.083 52.6435 259.352 52.7013 259.352H65.0321V247.274H39.325V273.002H26.2062V259.872H0V246.743H26.2324V221.016H13.639V234.145H0V207.892H26.7578V220.495H39.3513V233.624H51.9447V221.284C51.9447 220.916 52.8221 220.574 53.2582 220.495C56.7415 219.859 61.8955 220.963 65.589 220.495V233.624H90.7706V221.021H78.1772C78.1877 216.651 78.1667 212.261 78.1772 207.892L78.1719 207.928ZM259.177 13.6498H247.109V26.2533H259.177V13.6498ZM220.357 39.3826H207.763V51.986H220.357V39.3826ZM207.763 52.5066H195.17V90.8375H207.763V52.5066ZM233.47 52.5066H220.877V65.1101H233.47V52.5066ZM181.531 65.6359H168.937V90.8375H181.531V65.6359ZM233.47 78.2341H220.877V90.8375H233.47V78.2341ZM220.357 91.3633H207.763V103.967H220.357V91.3633ZM246.589 91.3633H233.996V130.22H220.877V143.349H207.758V155.953H220.877V181.68H233.47V169.077H259.177V156.473H246.584V142.824H259.177V104.493H246.584V91.3633H246.589ZM324.236 156.473H311.642V169.077H298.523V181.68H311.642V194.81H324.236V156.479V156.473ZM285.41 169.072H259.703V181.675H272.822V194.804H298.529V182.201H285.41V169.072ZM311.122 195.325H298.529V207.928H311.122V195.325ZM285.41 207.928H272.816V220.532H285.41V207.928ZM207.763 221.052H182.056V233.656H195.175V246.785H207.768V221.058L207.763 221.052ZM103.879 234.182H91.2855V246.785H103.879V234.182ZM142.705 234.182H130.111V246.785H142.705V234.182ZM90.7654 247.306H78.1719V259.383H90.7654V247.306ZM116.998 247.306H104.404V259.383H116.998V247.306ZM181.531 247.306H168.937V259.383H181.531V247.306ZM349.943 247.306H337.875V285.637H349.943V247.306ZM129.591 259.909H117.523V272.513H129.591V259.909ZM155.824 259.909H143.23V273.038H130.111V285.642H181.526V273.038H155.818V259.909H155.824ZM207.763 259.909H182.056V272.513H207.763V259.909ZM311.122 273.038H272.822V311.369H311.122V273.038ZM363.062 286.162H350.468V298.766H363.062V286.162ZM168.937 298.766H143.23V311.369H155.561C155.619 311.369 156.349 312.1 156.349 312.158V325.025H130.117V338.154H117.523V350.231H130.117V363.361H155.824V337.633H168.943V298.776L168.937 298.766ZM194.644 298.766H182.051V311.369H194.644V298.766ZM349.943 298.766H337.875V311.107C337.875 311.164 337.144 311.895 337.087 311.895H324.756V350.226H337.349V324.499H349.943V298.771V298.766ZM272.296 325.019H259.703V337.623H272.296V325.019Z" fill="black"/>
<path d="M0 285.637H91.2908V377H0V285.637ZM78.1719 298.766H13.639V363.35H78.1719V298.766Z" fill="black"/>
<path d="M0 0.525802L91.2908 0V91.3633H0V0.525802ZM78.1719 13.6498H13.639V78.2341H78.1719V13.6498Z" fill="black"/>
<path d="M363.062 377V363.35H376.701C376.401 367.814 377.342 372.688 376.175 377H363.057H363.062Z" fill="black"/>
<path d="M376.701 91.3633H285.41V0H375.913C375.971 0 376.701 0.730865 376.701 0.788703V91.3633ZM363.062 13.6498H298.529V78.2341H363.062V13.6498Z" fill="black"/>
<path d="M130.117 0V13.1293H142.71V0H155.566C155.624 0 156.354 0.730865 156.354 0.788703V13.6551H143.235V39.3826H129.596V26.7791H117.003V0H130.122H130.117Z" fill="black"/>
<path d="M363.587 155.948V169.072H376.7V195.325H363.061V169.072H349.942V155.948H363.587Z" fill="black"/>
<path d="M103.879 52.5066V39.6402C103.879 39.5824 104.609 38.8515 104.667 38.8515H116.735C116.793 38.8515 117.523 39.5824 117.523 39.6402V51.7179C117.523 51.7757 116.793 52.5066 116.735 52.5066H103.879Z" fill="black"/>
<path d="M298.529 285.637H285.41V298.766H298.529V285.637Z" fill="black"/>
<path d="M65.5837 311.369H26.2324V350.752H65.5837V311.369Z" fill="black"/>
<path d="M65.5837 26.2533H26.2324V65.6359H65.5837V26.2533Z" fill="black"/>
<path d="M350.473 26.2533H311.122V65.6359H350.473V26.2533Z" fill="black"/>
</g>
<defs>
<clipPath id="clip0_1200_10574">
<rect width="377" height="377" fill="white"/>
</clipPath>
</defs>
</svg>
